<svg width="100" height="100" viewBox="0 0 100 100" fill="none" xmlns="http://www.w3.org/2000/svg">
<path d="M28.5002 78.0833C28.5002 82.025 31.7252 85.25 35.6669 85.25H64.3335C68.2752 85.25 71.5002 82.025 71.5002 78.0833V42.25C71.5002 38.3083 68.2752 35.0833 64.3335 35.0833H35.6669C31.7252 35.0833 28.5002 38.3083 28.5002 42.25V78.0833ZM71.5002 24.3333H62.5419L59.9977 21.7892C59.3527 21.1442 58.421 20.75 57.4894 20.75H42.511C41.5794 20.75 40.6477 21.1442 40.0027 21.7892L37.4585 24.3333H28.5002C26.5294 24.3333 24.9169 25.9458 24.9169 27.9167C24.9169 29.8875 26.5294 31.5 28.5002 31.5H71.5002C73.471 31.5 75.0835 29.8875 75.0835 27.9167C75.0835 25.9458 73.471 24.3333 71.5002 24.3333Z" fill="#A3A7AC"/>
</svg>
