<svg width="575" height="128" viewBox="0 0 575 128" fill="none" xmlns="http://www.w3.org/2000/svg">
<path d="M542.045 101.364C534.864 101.364 528.682 99.9091 523.5 97C518.348 94.0606 514.379 89.9091 511.591 84.5455C508.803 79.1516 507.409 72.7728 507.409 65.4091C507.409 58.2273 508.803 51.9243 511.591 46.5C514.379 41.0758 518.303 36.8485 523.364 33.8182C528.455 30.7879 534.424 29.2728 541.273 29.2728C545.879 29.2728 550.167 30.0152 554.136 31.5C558.136 32.9546 561.621 35.1516 564.591 38.0909C567.591 41.0303 569.924 44.7273 571.591 49.1819C573.258 53.6061 574.091 58.7879 574.091 64.7273V70.0455H515.136V58.0455H555.864C555.864 55.2576 555.258 52.7879 554.045 50.6364C552.833 48.4849 551.151 46.8031 549 45.591C546.879 44.3485 544.409 43.7273 541.591 43.7273C538.652 43.7273 536.045 44.4091 533.773 45.7728C531.53 47.1061 529.773 48.9091 528.5 51.1819C527.227 53.4243 526.576 55.9243 526.545 58.6819V70.091C526.545 73.5455 527.182 76.5303 528.455 79.0455C529.758 81.5606 531.591 83.5 533.955 84.8637C536.318 86.2273 539.121 86.9091 542.364 86.9091C544.515 86.9091 546.485 86.6061 548.273 86C550.061 85.394 551.591 84.4849 552.864 83.2728C554.136 82.0606 555.106 80.5758 555.773 78.8182L573.682 80C572.773 84.3031 570.909 88.0606 568.091 91.2728C565.303 94.4546 561.697 96.9394 557.273 98.7273C552.879 100.485 547.803 101.364 542.045 101.364Z" fill="#8692FF"/>
<path d="M494.716 6.90918V100H475.352V6.90918H494.716Z" fill="#8692FF"/>
<path d="M425.807 127.636C419.534 127.636 414.155 126.773 409.67 125.045C405.216 123.349 401.67 121.03 399.034 118.091C396.398 115.152 394.686 111.849 393.898 108.182L411.807 105.773C412.352 107.167 413.216 108.47 414.398 109.682C415.58 110.894 417.14 111.864 419.08 112.591C421.049 113.349 423.443 113.727 426.261 113.727C430.473 113.727 433.943 112.697 436.67 110.636C439.428 108.606 440.807 105.197 440.807 100.409V87.6364H439.989C439.14 89.5758 437.867 91.4091 436.17 93.1364C434.473 94.8637 432.292 96.2728 429.625 97.3637C426.958 98.4546 423.777 99 420.08 99C414.837 99 410.064 97.7879 405.761 95.3637C401.489 92.9091 398.08 89.1667 395.534 84.1364C393.019 79.0758 391.761 72.6819 391.761 64.9546C391.761 57.0455 393.049 50.4394 395.625 45.1364C398.201 39.8334 401.625 35.8637 405.898 33.2273C410.201 30.5909 414.913 29.2728 420.034 29.2728C423.943 29.2728 427.216 29.9394 429.852 31.2728C432.489 32.5758 434.61 34.2122 436.216 36.1819C437.852 38.1212 439.11 40.0303 439.989 41.9091H440.716V30.1819H459.943V100.682C459.943 106.621 458.489 111.591 455.58 115.591C452.67 119.591 448.64 122.591 443.489 124.591C438.367 126.621 432.473 127.636 425.807 127.636ZM426.216 84.4546C429.337 84.4546 431.973 83.6819 434.125 82.1364C436.307 80.5606 437.973 78.3182 439.125 75.4091C440.307 72.4697 440.898 68.9546 440.898 64.8637C440.898 60.7728 440.322 57.2273 439.17 54.2273C438.019 51.197 436.352 48.8485 434.17 47.1819C431.989 45.5152 429.337 44.6819 426.216 44.6819C423.034 44.6819 420.352 45.5455 418.17 47.2728C415.989 48.9697 414.337 51.3334 413.216 54.3637C412.095 57.394 411.534 60.894 411.534 64.8637C411.534 68.894 412.095 72.3788 413.216 75.3182C414.367 78.2273 416.019 80.4849 418.17 82.091C420.352 83.6667 423.034 84.4546 426.216 84.4546Z" fill="#8692FF"/>
<path d="M334.091 59.6364V100H314.727V30.1819H333.182V42.5H334C335.545 38.4394 338.136 35.2273 341.773 32.8637C345.409 30.4697 349.818 29.2728 355 29.2728C359.849 29.2728 364.076 30.3334 367.682 32.4546C371.288 34.5758 374.091 37.6061 376.091 41.5455C378.091 45.4546 379.091 50.1213 379.091 55.5455V100H359.727V59C359.758 54.7273 358.667 51.394 356.455 49C354.242 46.5758 351.197 45.3637 347.318 45.3637C344.712 45.3637 342.409 45.9243 340.409 47.0455C338.439 48.1667 336.894 49.8031 335.773 51.9546C334.682 54.0758 334.121 56.6364 334.091 59.6364Z" fill="#8692FF"/>
<path d="M279.852 100V30.1819H299.216V100H279.852ZM289.58 21.1819C286.701 21.1819 284.231 20.2273 282.17 18.3182C280.14 16.3788 279.125 14.0606 279.125 11.3637C279.125 8.697 280.14 6.40913 282.17 4.50004C284.231 2.56064 286.701 1.59094 289.58 1.59094C292.458 1.59094 294.913 2.56064 296.943 4.50004C299.004 6.40913 300.034 8.697 300.034 11.3637C300.034 14.0606 299.004 16.3788 296.943 18.3182C294.913 20.2273 292.458 21.1819 289.58 21.1819Z" fill="#8692FF"/>
<path d="M232.898 101.364C225.837 101.364 219.731 99.8637 214.58 96.8637C209.458 93.8334 205.504 89.6213 202.716 84.2273C199.928 78.8031 198.534 72.5152 198.534 65.3637C198.534 58.1515 199.928 51.8485 202.716 46.4546C205.504 41.0303 209.458 36.8182 214.58 33.8182C219.731 30.7879 225.837 29.2728 232.898 29.2728C239.958 29.2728 246.049 30.7879 251.171 33.8182C256.322 36.8182 260.292 41.0303 263.08 46.4546C265.868 51.8485 267.261 58.1515 267.261 65.3637C267.261 72.5152 265.868 78.8031 263.08 84.2273C260.292 89.6213 256.322 93.8334 251.171 96.8637C246.049 99.8637 239.958 101.364 232.898 101.364ZM232.989 86.3637C236.201 86.3637 238.883 85.4546 241.034 83.6364C243.186 81.7879 244.807 79.2728 245.898 76.091C247.019 72.9091 247.58 69.2879 247.58 65.2273C247.58 61.1667 247.019 57.5455 245.898 54.3637C244.807 51.1819 243.186 48.6667 241.034 46.8182C238.883 44.9697 236.201 44.0455 232.989 44.0455C229.746 44.0455 227.019 44.9697 224.807 46.8182C222.625 48.6667 220.974 51.1819 219.852 54.3637C218.761 57.5455 218.216 61.1667 218.216 65.2273C218.216 69.2879 218.761 72.9091 219.852 76.091C220.974 79.2728 222.625 81.7879 224.807 83.6364C227.019 85.4546 229.746 86.3637 232.989 86.3637Z" fill="#8692FF"/>
<path d="M154.398 101.364C147.337 101.364 141.231 99.8637 136.08 96.8637C130.958 93.8334 127.004 89.6213 124.216 84.2273C121.428 78.8031 120.034 72.5152 120.034 65.3637C120.034 58.1515 121.428 51.8485 124.216 46.4546C127.004 41.0303 130.958 36.8182 136.08 33.8182C141.231 30.7879 147.337 29.2728 154.398 29.2728C161.458 29.2728 167.549 30.7879 172.671 33.8182C177.822 36.8182 181.792 41.0303 184.58 46.4546C187.368 51.8485 188.761 58.1515 188.761 65.3637C188.761 72.5152 187.368 78.8031 184.58 84.2273C181.792 89.6213 177.822 93.8334 172.671 96.8637C167.549 99.8637 161.458 101.364 154.398 101.364ZM154.489 86.3637C157.701 86.3637 160.383 85.4546 162.534 83.6364C164.686 81.7879 166.307 79.2728 167.398 76.091C168.519 72.9091 169.08 69.2879 169.08 65.2273C169.08 61.1667 168.519 57.5455 167.398 54.3637C166.307 51.1819 164.686 48.6667 162.534 46.8182C160.383 44.9697 157.701 44.0455 154.489 44.0455C151.246 44.0455 148.519 44.9697 146.307 46.8182C144.125 48.6667 142.474 51.1819 141.352 54.3637C140.261 57.5455 139.716 61.1667 139.716 65.2273C139.716 69.2879 140.261 72.9091 141.352 76.091C142.474 79.2728 144.125 81.7879 146.307 83.6364C148.519 85.4546 151.246 86.3637 154.489 86.3637Z" fill="#8692FF"/>
<path d="M73 19L91.1205 38.1379L117.625 43.1616L73 19Z" fill="#FA61BD"/>
<path d="M91.0318 43L84 54.9612L117.266 45.153L91.0318 43Z" fill="#FA61BD"/>
<path fill-rule="evenodd" clip-rule="evenodd" d="M8.02819 6.44119C11.3087 2.38126 17.2097 2.14245 23.4215 4.53065C39.5718 10.7399 49.1611 15.2775 60.5168 33.4277C60.5168 33.4277 69.8538 33.1889 74.396 34.1442C79.443 35.2056 83.765 36.9907 83.9853 41.7864C84.2377 47.2792 81.2095 47.518 77.1719 48.7121C67.5826 50.6227 77.1719 48.7121 67.5826 50.6227C69.9953 60.6154 72.3176 75.1915 70.7802 83.6999C69.0694 93.1677 65.8162 101.406 53.2755 106.271C43.3571 110.118 27.9075 107.293 19.3839 100.297C10.9588 93.382 5 82.4015 5 71.1617C5 62.4744 8.63769 54.6071 15.5405 48.4136C21.8663 42.7378 30.5863 38.7499 41.0406 36.2392C34.7772 23.8749 16.6081 20.0539 10.804 17.188C7.90202 15.7551 4.94063 10.2623 8.02819 6.44119ZM46.9789 54.531C38.1545 56.5258 32.626 59.4109 29.4301 62.2784C26.4004 64.9968 25.1879 67.908 25.1879 71.1617C25.1879 76.1615 28.0548 81.8156 32.6508 85.5878C37.1483 89.2791 41.7805 90.0817 45.6185 88.5928C47.8111 87.7422 49.9201 85.7981 50.8811 80.4795C51.8838 74.9301 51.2604 67.0634 48.7116 57.447C48.4474 56.4501 48.1647 55.4426 47.8641 54.4256C47.5681 54.4585 47.2731 54.4936 46.9789 54.531Z" fill="#8692FF"/>
</svg>
