<svg width="100" height="100" viewBox="0 0 100 100" fill="none" xmlns="http://www.w3.org/2000/svg">
<path d="M75 46.0001C75 48.1084 76.725 49.8334 78.8333 49.8334H86.5C88.6083 49.8334 90.3333 48.1084 90.3333 46.0001C90.3333 43.8917 88.6083 42.1667 86.5 42.1667H78.8333C76.725 42.1667 75 43.8917 75 46.0001Z" fill="#8692FF"/>
<path d="M69.5953 64.4763C68.3303 66.1629 68.6753 68.5013 70.362 69.7279C72.3937 71.2229 74.5403 72.8329 76.572 74.3663C78.2587 75.6313 80.6353 75.2863 81.862 73.5996C81.862 73.5613 81.9003 73.5613 81.9003 73.5229C83.1653 71.8363 82.8203 69.4596 81.1337 68.2329C79.102 66.6996 76.9553 65.0896 74.962 63.5946C73.2753 62.3296 70.8987 62.7129 69.6337 64.3996C69.6337 64.4379 69.5953 64.4763 69.5953 64.4763Z" fill="#8692FF"/>
<path d="M81.938 18.4382C81.938 18.3998 81.8997 18.3998 81.8997 18.3615C80.6347 16.6748 78.258 16.3298 76.6097 17.5948C74.578 19.1282 72.393 20.7382 70.3997 22.2715C68.713 23.5365 68.4064 25.9132 69.6714 27.5615C69.6714 27.5998 69.7097 27.5998 69.7097 27.6382C70.9747 29.3248 73.313 29.6698 74.9997 28.4048C77.0314 26.9098 79.178 25.2615 81.2097 23.7282C82.858 22.5015 83.1647 20.1248 81.938 18.4382Z" fill="#8692FF"/>
<path d="M36.6666 34.5H21.3333C17.1166 34.5 13.6666 37.95 13.6666 42.1667V49.8333C13.6666 54.05 17.1166 57.5 21.3333 57.5H25.1666V69C25.1666 71.1083 26.8916 72.8333 29 72.8333C31.1083 72.8333 32.8333 71.1083 32.8333 69V57.5H36.6666L55.8333 69V23L36.6666 34.5Z" fill="#8692FF"/>
<path d="M65.4166 45.9996C65.4166 40.9013 63.1933 36.3013 59.6666 33.158V58.803C63.1933 55.698 65.4166 51.098 65.4166 45.9996Z" fill="#8692FF"/>
</svg>
