<svg width="220" height="232" viewBox="0 0 220 232" fill="none" xmlns="http://www.w3.org/2000/svg">
<path fill-rule="evenodd" clip-rule="evenodd" d="M11 12.2046C17.5 3.70459 29.1921 3.20461 41.5 8.20463C73.5 21.2046 92.5 30.7045 115 68.7046C115 68.7046 133.5 68.2046 142.5 70.2046C152.5 72.4268 161.063 76.1642 161.5 86.2046C162 97.7046 156 98.2046 148 100.705C129 104.705 148 100.705 129 104.705C133.78 125.626 138.382 156.143 135.336 173.956C131.946 193.778 125.5 211.026 100.652 221.211C81 229.267 50.3886 223.351 33.5 208.705C16.8067 194.227 5 171.238 5 147.706C5 129.518 12.2077 113.047 25.8847 100.08C38.4186 88.1966 55.6962 79.8474 76.4101 74.5909C64 48.7046 28 40.7046 16.5 34.7046C10.75 31.7046 4.88237 20.2046 11 12.2046ZM88.1762 112.887C70.6917 117.064 59.7376 123.104 53.4053 129.108C47.4023 134.799 45 140.894 45 147.706C45 158.174 50.6803 170.011 59.7868 177.909C68.6981 185.637 77.8762 187.317 85.4807 184.2C89.8251 182.419 94.0038 178.349 95.908 167.214C97.8948 155.595 96.6594 139.126 91.6093 118.992C91.0858 116.905 90.5257 114.796 89.9301 112.667C89.3437 112.735 88.7591 112.809 88.1762 112.887Z" fill="#8692FF"/>
<path d="M135.5 43.2046L169 83.2046L218 93.7046L135.5 43.2046Z" fill="#FA61BD"/>
<path d="M169 90.7046L156 115.705L217.5 95.2046L169 90.7046Z" fill="#FA61BD"/>
</svg>
