<svg width="100" height="100" viewBox="0 0 100 100" fill="none" xmlns="http://www.w3.org/2000/svg">
<path d="M50 8.33325C27 8.33325 8.33337 26.9999 8.33337 49.9999C8.33337 72.9999 27 91.6666 50 91.6666C73 91.6666 91.6667 72.9999 91.6667 49.9999C91.6667 26.9999 73 8.33325 50 8.33325ZM50 20.8333C56.9167 20.8333 62.5 26.4166 62.5 33.3333C62.5 40.2499 56.9167 45.8333 50 45.8333C43.0834 45.8333 37.5 40.2499 37.5 33.3333C37.5 26.4166 43.0834 20.8333 50 20.8333ZM50 79.9999C39.5834 79.9999 30.375 74.6666 25 66.5833C25.125 58.2916 41.6667 53.7499 50 53.7499C58.2917 53.7499 74.875 58.2916 75 66.5833C69.625 74.6666 60.4167 79.9999 50 79.9999Z" fill="#8692FF"/>
</svg>
