<svg width="100" height="100" viewBox="0 0 100 100" fill="none" xmlns="http://www.w3.org/2000/svg">
<path d="M64.5834 58.3335H61.2917L60.125 57.2085C65.125 51.3752 67.7084 43.4168 66.2917 34.9585C64.3334 23.3752 54.6667 14.1252 43 12.7085C25.375 10.5418 10.5417 25.3752 12.7084 43.0002C14.125 54.6668 23.375 64.3335 34.9584 66.2918C43.4167 67.7085 51.375 65.1252 57.2084 60.1252L58.3334 61.2918V64.5835L76.0417 82.2918C77.75 84.0002 80.5417 84.0002 82.25 82.2918C83.9584 80.5835 83.9584 77.7918 82.25 76.0835L64.5834 58.3335ZM39.5834 58.3335C29.2084 58.3335 20.8334 49.9585 20.8334 39.5835C20.8334 29.2085 29.2084 20.8335 39.5834 20.8335C49.9584 20.8335 58.3334 29.2085 58.3334 39.5835C58.3334 49.9585 49.9584 58.3335 39.5834 58.3335Z" fill="#8692FF"/>
</svg>
